<?xml version="1.0" encoding="utf-8"?>
<!-- Generator: Adobe Illustrator 16.0.0, SVG Export Plug-In . SVG Version: 6.00 Build 0)  -->
<!DOCTYPE svg PUBLIC "-//W3C//DTD SVG 1.1//EN" "http://www.w3.org/Graphics/SVG/1.1/DTD/svg11.dtd">
<svg version="1.1" xmlns="http://www.w3.org/2000/svg" xmlns:xlink="http://www.w3.org/1999/xlink" x="0px" y="0px" width="53.04px"
	 height="72.48px" viewBox="0 0 53.04 72.48" enable-background="new 0 0 53.04 72.48" xml:space="preserve">
<g id="Shape_1_copy_2_1_" enable-background="new    ">
	<g id="Shape_1_copy_2">
		<g>
			<path fill="#7C7C7C" d="M38.852,22.096C33.763,16.32,9.656,20.74,4.227,28.895S1.2,46.45,8.64,52.69
				c7.44,6.239,35.86-2.139,38.02-10.538C48.82,33.752,43.942,27.872,38.852,22.096z"/>
		</g>
	</g>
</g>
<g id="Shape_1_copy_3_1_" enable-background="new    ">
	<g id="Shape_1_copy_3">
		<g>
			<path fill="#FFFFFF" d="M31.498,0l-6.337,8.838l-5.205-7.025l-2.942,8.385L11.582,2.72l-1.811,8.612L0.945,7.025
				c0,0,0.991,11.117,2.716,13.371C8.55,15.18,33.76,13.371,36.25,13.824C34.892,7.025,31.498,0,31.498,0z"/>
		</g>
	</g>
</g>
<g id="Shape_2_copy_1_" enable-background="new    ">
	<g id="Shape_2_copy">
		<g>
			<path fill-rule="evenodd" clip-rule="evenodd" fill="#FFFFFF" d="M40.663,34.107c-3.801-2.928-18.557-4.532-24.894-0.227
				c-5.96,4.05-19.197,15.622-14.937,26.289c0.905,2.266,13.569,1.828,15.842,3.172c3.973,4.926,3.847,5.893,5.884,7.479
				c0.169-0.934,1.758,1.355,2.716,0.793c0.851-0.5,1.508-4.277,1.587-3.709c0.223,1.602,1.019,3.561,2.537,4.41
				c0.339,0.189,1.047,0.148,1.836,0.012c0.215-0.037,0.297-1.798,0.377-2.3c0.171,0.665,0.679,2.079,0.874,2.031
				c0.627-0.156,1.212-0.326,1.615-0.444c0.611-0.18,1.244-3.221,1.131-4.306c-0.073-0.71,0.559,3.23,1.368,2.462
				c2.787-2.646,1.348-5.521,2.706-9.147c1.357-3.626,11.768-4.759,13.353-8.612C54.21,48.232,43.605,36.373,40.663,34.107z
				 M23.011,56.77c-1.584,2.492-14.937,1.359-16.068-2.267c-1.131-3.626,5.884-9.518,9.505-9.292
				C20.069,45.438,26.179,51.783,23.011,56.77z M24.821,62.661c0.905-3.172,2.715-5.212,2.715-5.212
				c2.037,0.906,2.264,7.025,2.264,7.025C27.537,64.928,24.821,62.661,24.821,62.661z M32.063,63.568L29.8,57.223
				c0,0,3.168,1.133,3.847,2.946C33.647,60.169,34.779,63.341,32.063,63.568z M46.321,50.424
				c-1.811,5.666-12.379,6.702-12.899,4.985c-1.697-5.589,0.679-13.37,2.489-14.276C38.373,39.899,46.876,48.684,46.321,50.424z"/>
		</g>
	</g>
</g>
<g id="Shape_1_copy_4_1_" enable-background="new    ">
	<g id="Shape_1_copy_4">
		<g>
			<path fill="#FFFFFF" d="M38.852,22.096C33.763,16.32,9.656,20.74,4.227,28.895c5.27-5.277,8.015-2.45,5.834,14.58
				c7.885-7.352,24.303-8.258,32.342-6.561C34.378,26.473,32.697,20.334,38.852,22.096z"/>
		</g>
	</g>
</g>
</svg>
