<svg width="156" height="68" viewBox="0 0 156 68" fill="none" xmlns="http://www.w3.org/2000/svg">
<path d="M151.4 40.9L154.6 44.1L154.4 44.9L148.1 43.4L148.4 42.2L151.9 43L149.8 40.9L150 40.1L152.8 39.2L149.3 38.3L149.6 37.1L155.9 38.6L155.7 39.5L151.4 40.9Z" fill="black"/>
<path d="M147.1 47.5C146.5 48.6 146.9 49.8 148 50.5C149.1 51.1 150.4 50.8 151 49.8C151.6 48.7 151.2 47.5 150.1 46.9C149 46.1 147.7 46.4 147.1 47.5ZM151.9 50.2C150.9 51.9 148.9 52.4 147.3 51.5C145.7 50.6 145.1 48.6 146.1 46.9C147.1 45.2 149.1 44.7 150.7 45.6C152.3 46.5 152.9 48.5 151.9 50.2Z" fill="black"/>
<path d="M148.7 54.9L148.1 55.5L142.6 55.1L145.6 58.1L144.7 59L140.1 54.4L140.7 53.8L146.2 54.2L143.2 51.3L144.1 50.4L148.7 54.9Z" fill="black"/>
<path d="M142.5 60.7L141.7 61.2L136.4 59.4L138.6 63L137.5 63.7L134.2 58.1L135 57.6L140.2 59.4L138.1 55.8L139.2 55.2L142.5 60.7Z" fill="black"/>
<path d="M132 61.5L130.4 61.9L131.7 63.5L132 61.5ZM133.6 58.4L132.7 65.4L131.9 65.6L127.5 60.1L128.8 59.7L129.8 60.9L132.3 60.2L132.5 58.7L133.6 58.4Z" fill="black"/>
<path d="M126.478 60.2547L125.284 60.3729L125.924 66.841L127.118 66.7229L126.478 60.2547Z" fill="black"/>
<path d="M122.4 65.7L122.5 64.4L120.5 64.3V63.2H122.5L122.6 61.4L119.9 61.3V60.2L123.9 60.4L123.6 66.9L119.7 66.7L119.8 65.6L122.4 65.7Z" fill="black"/>
<path d="M112.8 62.4C112.5 62.3 112.3 62.3 112.1 62.4C112 62.5 111.8 62.6 111.8 62.8C111.7 63 111.7 63.2 111.8 63.3C111.9 63.5 112 63.6 112.3 63.7L113.3 64.1L113.8 62.8L112.8 62.4ZM114.1 61.7L115.1 59L116.3 59.4L114.1 65.5L111.9 64.7C111.3 64.5 110.9 64.1 110.7 63.8C110.5 63.4 110.4 62.8 110.6 62.4C110.8 61.9 111.2 61.5 111.6 61.4C111.8 61.3 112.1 61.3 112.3 61.3L111.1 57.7L112.6 58.2L113.8 61.7H114.1Z" fill="black"/>
<path d="M108.1 56.8C107.1 56.1 105.8 56.5 105.1 57.5C104.4 58.5 104.6 59.9 105.7 60.5C106.7 61.2 108 60.8 108.7 59.8C109.3 58.8 109.1 57.4 108.1 56.8ZM105 61.4C103.3 60.3 103 58.3 104 56.8C105 55.3 107 54.8 108.7 55.9C110.4 57 110.7 59 109.7 60.5C108.7 62 106.7 62.5 105 61.4Z" fill="black"/>
<path d="M101.9 54.1L104 52L104.9 52.9L102.8 55L101.9 59.1L100.8 58L101.5 55.4L98.8 56L97.8 55L101.9 54.1Z" fill="black"/>
<path d="M99.7002 50.8L98.8002 49.4L97.7002 51.2L99.7002 50.8ZM103.1 51.3L96.2002 52.6L95.7002 51.9L99.5002 46L100.2 47.1L99.4002 48.4L100.9 50.6L102.4 50.3L103.1 51.3Z" fill="black"/>
<path d="M93.3 47.7L92.8 46.5L97.8 44.5L96.8 42L97.8 41.6L99.3 45.3L93.3 47.7Z" fill="black"/>
<path d="M92.1002 40.5L93.4001 40.3L93.0001 38.3L94.1002 38.1L94.5001 40L96.3001 39.6L95.7001 37L96.8001 36.7L97.6002 40.6L91.3001 42L90.4001 38.2L91.5001 38L92.1002 40.5Z" fill="black"/>
<path d="M141.8 28.5C140.6 28.7 139.8 29.8 140 31C140.1 31.8 140.6 32.4 141.2 32.7L140.6 33.7C139.8 33.3 139.1 32.4 138.9 31.2C138.6 29.2 139.8 27.6 141.6 27.3C143.4 27 145.1 28.1 145.4 30.1C145.6 31.1 145.3 31.9 144.9 32.6L143.9 31.9C144.2 31.5 144.4 30.9 144.3 30.2C144.2 29.1 143 28.3 141.8 28.5Z" fill="black"/>
<path d="M141.5 37.1L141.1 38.7L143.1 38.3L141.5 37.1ZM139.5 34.3L145.2 38.4L145 39.3L138.1 40.6L138.4 39.3L139.9 39L140.5 36.5L139.2 35.6L139.5 34.3Z" fill="black"/>
<path d="M142.8 45.3L142.2 46L136.7 46.3L140 48.8L139.3 49.8L134.1 45.9L134.7 45.2L140.2 44.9L136.9 42.3L137.6 41.3L142.8 45.3Z" fill="black"/>
<path d="M132.6 49.9L131.1 50.7L132.7 52L132.6 49.9ZM133.5 46.5L134.1 53.5L133.3 53.9L127.8 49.5L129 48.9L130.2 49.9L132.5 48.7L132.4 47.1L133.5 46.5Z" fill="black"/>
<path d="M123.4 54.5C123.8 54.9 124.3 55.2 125.1 55.1L126 55L125.7 50.8L124.8 50.9C124 51 123.5 51.3 123.2 51.7C122.9 52.1 122.8 52.6 122.8 53.1C122.8 53.7 123.1 54.2 123.4 54.5ZM125.3 56.2C124.3 56.3 123.6 56.1 123 55.7C122.2 55.2 121.6 54.2 121.5 53.2C121.4 52.1 121.8 51.1 122.6 50.5C123.1 50.1 123.8 49.8 124.8 49.7L126.8 49.6L127.2 56.1L125.3 56.2Z" fill="black"/>
<path d="M119.156 49.3588L117.746 55.7041L118.918 55.9642L120.327 49.6189L119.156 49.3588Z" fill="black"/>
<path d="M113.6 52.9L114.3 51.8L112.5 50.8L113 49.8L114.8 50.8L115.7 49.2L113.3 47.9L113.8 46.9L117.3 48.8L114.2 54.5L110.8 52.7L111.3 51.7L113.6 52.9Z" fill="black"/>
<path d="M107.5 50.1L106.9 49.4L108 44L104.7 46.6L103.9 45.6L109 41.6L109.5 42.3L108.5 47.7L111.8 45.1L112.6 46.1L107.5 50.1Z" fill="black"/>
<path d="M101.9 41.5L101.7 40.6L105.1 36.2L101 37.1L100.7 35.9L107.1 34.5L107.2 35.4L103.9 39.8L108 38.9L108.3 40.1L101.9 41.5Z" fill="black"/>
<path d="M102.2 30.7L103.5 31L103.9 29.1L105 29.3L104.6 31.2L106.4 31.6L106.9 28.9L108 29.2L107.2 33.1L100.9 31.7L101.6 27.9L102.7 28.1L102.2 30.7Z" fill="black"/>
<path d="M100.1 15.9L102.5 17.7L101.7 18.7L99.4002 16.9L95.2002 16.6L96.0002 15.4L98.7002 15.7L97.8002 13.2L98.6002 12L100.1 15.9Z" fill="black"/>
<path d="M103.1 13.3L104.3 12.2L102.4 11.3L103.1 13.3ZM103.1 16.8L100.8 10.1L101.4 9.5L107.8 12.4L106.8 13.3L105.4 12.7L103.5 14.5L104 16L103.1 16.8Z" fill="black"/>
<path d="M105.2 6.5L106.3 5.8L109 10.5L111.4 9.1L111.9 10.1L108.5 12.1L105.2 6.5Z" fill="black"/>
<path d="M114.5 5.7C114.8 6.9 116 7.6 117.2 7.3C118 7.1 118.5 6.6 118.8 6L119.8 6.5C119.4 7.3 118.6 8.1 117.4 8.3C115.4 8.8 113.7 7.7 113.3 5.9C112.9 4.1 113.9 2.3 115.8 1.9C116.7 1.7 117.6 1.8 118.3 2.2L117.7 3.2C117.2 2.9 116.6 2.8 116 2.9C114.9 3.3 114.2 4.5 114.5 5.7Z" fill="black"/>
<path d="M122.3 5.1H123.9L123 3.2L122.3 5.1ZM120 7.7L122.7 1.2H123.6L126.5 7.6H125.2L124.6 6.2H122L121.4 7.6L120 7.7Z" fill="black"/>
<path d="M128.5 1.5L129.4 1.7L131.9 6.7L132.9 2.6L134.1 2.9L132.5 9.2L131.7 8.9L129.2 4L128.2 8.1L127 7.8L128.5 1.5Z" fill="black"/>
<path d="M136.5 8.4L137.9 9.2L138.1 7.1L136.5 8.4ZM133.2 9.4L138.8 5.1L139.6 5.5L138.9 12.5L137.8 11.9L138 10.3L135.7 9L134.5 10L133.2 9.4Z" fill="black"/>
<path d="M145.3 12.2C145.3 11.6 145.1 11.1 144.6 10.5L143.9 9.9L141 13L141.7 13.6C142.3 14.1 142.8 14.3 143.4 14.2C143.9 14.1 144.3 13.9 144.7 13.5C145.1 13.1 145.3 12.6 145.3 12.2ZM145.2 9.6C146 10.3 146.3 10.9 146.4 11.6C146.6 12.6 146.3 13.6 145.6 14.4C144.9 15.2 143.9 15.6 142.9 15.5C142.2 15.4 141.6 15.1 140.8 14.4L139.3 13L143.7 8.2L145.2 9.6Z" fill="black"/>
<path d="M148.936 13.4095L143.801 17.3946L144.598 18.4216L149.733 14.4365L148.936 13.4095Z" fill="black"/>
<path d="M148.5 19.9L149.3 21.4L150.6 19.8L148.5 19.9ZM145.1 19L152.1 18.4L152.5 19.2L148.1 24.7L147.5 23.5L148.5 22.3L147.3 20L145.7 20.1L145.1 19Z" fill="black"/>
<path d="M154.6 23.9L154.8 24.8L151.5 29.2L155.6 28.3L155.9 29.5L149.6 30.9L149.4 30.1L152.7 25.6L148.6 26.6L148.3 25.3L154.6 23.9Z" fill="black"/>
<path d="M113.8 18.1V13.5L114.6 13.1L117.9 18.7L116.8 19.3L115 16.2L114.9 19.2L114.2 19.6L111.6 18.2L113.4 21.3L112.3 22L109 16.4L109.8 15.9L113.8 18.1Z" fill="black"/>
<path d="M120.522 11.5522L119.335 11.7279L120.286 18.1577L121.473 17.982L120.522 11.5522Z" fill="black"/>
<path d="M125.3 11.5L126.2 11.7L128.8 16.6L129.7 12.5L130.9 12.8L129.5 19.1L128.7 18.9L126 14L125.1 18.1L123.9 17.9L125.3 11.5Z" fill="black"/>
<path d="M138 16.7L137.4 17.7L136 16.7L132.9 21.1L131.9 20.4L135 16L133.5 15L134.2 14.1L138 16.7Z" fill="black"/>
<path d="M93.5001 27.9C93.6001 27.5 93.5001 27.4 93.4001 27.2C93.3001 27.1 93.1001 27 93.0001 26.9C92.8001 26.9 92.6001 26.9 92.5001 27C92.4001 27.1 92.2001 27.2 92.2001 27.6L92.0001 28.6L93.4001 28.9L93.5001 27.9ZM94.4001 29.1L97.2001 29.7L96.9001 30.9L90.6001 29.6L91.1001 27.3C91.2001 26.6 91.5001 26.3 91.9001 26C92.3001 25.7 92.8001 25.6 93.3001 25.7C93.8001 25.8 94.2001 26.1 94.5001 26.5C94.6001 26.7 94.7001 26.9 94.7001 27.2L98.1001 25.4L97.8001 27L94.5001 28.7L94.4001 29.1Z" fill="black"/>
<path d="M98.4001 22.4C98.9001 21.3 98.4001 20 97.3001 19.5C96.2001 19 94.9001 19.4 94.4001 20.5C93.9001 21.6 94.4001 22.9 95.5001 23.4C96.6001 23.9 97.9001 23.5 98.4001 22.4ZM93.4001 20.1C94.3001 18.3 96.2001 17.7 97.9001 18.5C99.6001 19.3 100.3 21.2 99.5001 23C98.6001 24.8 96.7001 25.4 95.0001 24.6C93.3001 23.7 92.5001 21.9 93.4001 20.1Z" fill="black"/>
<path d="M43.2999 56.1C43.2999 52.6 40.5 49.8 37 49.8C33.5 49.8 30.7 52.6 30.7 56.1C30.7 59.6 33.5 62.4 37 62.4C40.4 62.3 43.2999 59.5 43.2999 56.1Z" fill="#C69214"/>
<path d="M51.8999 53.5C48.3999 53.5 45.5999 56.3 45.5999 59.8C45.5999 63.3 48.3999 66.1 51.8999 66.1C55.3999 66.1 58.1999 63.3 58.1999 59.8C58.1999 56.4 55.3999 53.5 51.8999 53.5Z" fill="#C69214"/>
<path d="M39.9999 48.3C42.3999 48.3 44.3999 46.3 44.3999 43.9C44.3999 41.5 42.3999 39.5 39.9999 39.5C37.5999 39.5 35.5999 41.5 35.5999 43.9C35.5999 46.3 37.5999 48.3 39.9999 48.3Z" fill="#C69214"/>
<path d="M29.5999 53.2C29.5999 50.7 27.5999 48.6 24.9999 48.6C22.4999 48.6 20.3999 50.6 20.3999 53.2C20.3999 55.7 22.3999 57.8 24.9999 57.8C27.5999 57.7 29.5999 55.7 29.5999 53.2Z" fill="#C69214"/>
<path d="M60.2 48.4C63.2 48.4 65.6999 45.9 65.6999 42.9C65.6999 39.9 63.2 37.4 60.2 37.4C57.2 37.4 54.7 39.9 54.7 42.9C54.7 45.9 57.1 48.4 60.2 48.4Z" fill="#C69214"/>
<path d="M50.3998 52.6C52.8998 52.6 54.9998 50.6 54.9998 48C54.9998 45.5 52.9998 43.4 50.3998 43.4C47.8998 43.4 45.7998 45.4 45.7998 48C45.7998 50.5 47.8998 52.6 50.3998 52.6Z" fill="#C69214"/>
<path d="M50.2999 31.5C50.2999 29.2 48.3999 27.3 46.0999 27.3C43.7999 27.3 41.8999 29.2 41.8999 31.5C41.8999 33.8 43.7999 35.7 46.0999 35.7C48.3999 35.7 50.2999 33.8 50.2999 31.5Z" fill="#C69214"/>
<path d="M34.9999 46.1C34.9999 44 33.2999 42.3 31.1999 42.3C29.0999 42.3 27.3999 44 27.3999 46.1C27.3999 48.2 29.0999 49.9 31.1999 49.9C33.2999 49.9 34.9999 48.2 34.9999 46.1Z" fill="#C69214"/>
<path d="M63.0999 32.7C63.0999 34.5 64.4999 35.9 66.2999 35.9C68.0999 35.9 69.4999 34.4 69.4999 32.7C69.4999 30.9 67.9999 29.5 66.2999 29.5C64.4999 29.4 63.0999 30.9 63.0999 32.7Z" fill="#C69214"/>
<path d="M44.3 25.1C44.3 23.5 43 22.2 41.4 22.2C39.8 22.2 38.5 23.5 38.5 25.1C38.5 26.7 39.8 28 41.4 28C43 28 44.3 26.7 44.3 25.1Z" fill="#C69214"/>
<path d="M43.2 60.9C42.1 60.9 41.2 61.8 41.2 63C41.2 64.1 42.1 65 43.2 65C44.3 65 45.2 64.1 45.2 63C45.3 61.8 44.4 60.9 43.2 60.9Z" fill="#C69214"/>
<path d="M28.2 58.5C26.4 58.5 25 59.9 25 61.7C25 63.5 26.4 64.9 28.2 64.9C30 64.9 31.4 63.5 31.4 61.7C31.5 59.9 30 58.5 28.2 58.5Z" fill="#C69214"/>
<path d="M69.5999 41.8C67.7999 41.8 66.3999 43.3 66.3999 45C66.3999 46.8 67.7999 48.2 69.5999 48.2C71.3999 48.2 72.7999 46.7 72.7999 45C72.7999 43.3 71.3999 41.8 69.5999 41.8Z" fill="#C69214"/>
<path d="M47.2 38.8C47.2 40.9 48.9 42.6 51 42.6C53.1 42.6 54.7999 40.9 54.7999 38.8C54.7999 36.7 53.1 35 51 35C48.9 34.9 47.2 36.7 47.2 38.8Z" fill="#C69214"/>
<path d="M60.5998 49.2C58.4998 49.2 56.7998 50.9 56.7998 53C56.7998 55.1 58.4998 56.8 60.5998 56.8C62.6998 56.8 64.3998 55.1 64.3998 53C64.3998 50.9 62.6998 49.2 60.5998 49.2Z" fill="#C69214"/>
<path d="M54.5999 32.9C54.5999 35 56.2999 36.7 58.3999 36.7C60.4999 36.7 62.1999 35 62.1999 32.9C62.1999 30.8 60.4999 29.1 58.3999 29.1C56.2999 29 54.5999 30.7 54.5999 32.9Z" fill="#C69214"/>
<path d="M75.8998 30.4C75.8998 28.9 74.6998 27.6 73.0998 27.6C71.5998 27.6 70.2998 28.8 70.2998 30.4C70.2998 31.9 71.4998 33.2 73.0998 33.2C74.6998 33.2 75.8998 31.9 75.8998 30.4Z" fill="#C69214"/>
<path d="M62.0999 27.8C63.1999 27.8 64.0999 26.9 64.0999 25.8C64.0999 24.7 63.1999 23.8 62.0999 23.8C60.9999 23.8 60.0999 24.7 60.0999 25.8C60.0999 26.9 60.9999 27.8 62.0999 27.8Z" fill="#C69214"/>
<path d="M67.0999 38.4C67.0999 39.7 68.1999 40.8 69.4999 40.8C70.7999 40.8 71.8999 39.7 71.8999 38.4C71.8999 37.1 70.7999 36 69.4999 36C68.0999 36 67.0999 37.1 67.0999 38.4Z" fill="#C69214"/>
<path d="M25.2 39.6C25.2 41 26.3 42.1 27.7 42.1C29.1 42.1 30.2 41 30.2 39.6C30.2 38.2 29.1 37.1 27.7 37.1C26.3 37 25.2 38.2 25.2 39.6Z" fill="#C69214"/>
<path d="M49.2 22.2C47.8 22.2 46.7 23.3 46.7 24.7C46.7 26.1 47.8 27.2 49.2 27.2C50.6 27.2 51.7 26.1 51.7 24.7C51.7 23.3 50.7 22.2 49.2 22.2Z" fill="#C69214"/>
<path d="M28.6999 26.5C30.1999 26.5 31.4999 25.3 31.4999 23.7C31.4999 22.2 30.2999 20.9 28.6999 20.9C27.1999 20.9 25.8999 22.1 25.8999 23.7C25.8999 25.3 27.1999 26.5 28.6999 26.5Z" fill="#C69214"/>
<path d="M75.3999 41.3C74.2999 41.3 73.3999 42.2 73.3999 43.3C73.3999 44.4 74.2999 45.3 75.3999 45.3C76.4999 45.3 77.3999 44.4 77.3999 43.3C77.3999 42.2 76.4999 41.3 75.3999 41.3Z" fill="#C69214"/>
<path d="M23.8 38.8C23.2 36.4 21 34.7 18.5 34.7C18 34.7 17.6 34.8 17.1 34.9C14.2 35.7 12.4 38.7 13.2 41.6C13.8 44 16 45.7 18.5 45.7C19 45.7 19.4 45.6 19.9 45.5C22.8 44.7 24.6 41.7 23.8 38.8Z" fill="#C69214"/>
<path d="M7.69996 40.4C9.39996 40 10.5 38.2 9.99996 36.5C9.59996 35 8.39996 34 6.89996 34C6.59996 34 6.39996 34 6.09996 34.1C5.29996 34.3 4.59996 34.8 4.09996 35.6C3.69996 36.3 3.49996 37.2 3.79996 38.1C4.19996 39.5 5.49996 40.5 6.89996 40.5C7.19996 40.5 7.39996 40.4 7.69996 40.4Z" fill="#C69214"/>
<path d="M17.5999 46.9C17.3999 46.9 17.2999 46.9 17.0999 47C16.0999 47.3 15.4999 48.3 15.7999 49.2C15.9999 50 16.6999 50.5 17.5999 50.5C17.7999 50.5 17.8999 50.5 18.0999 50.4C19.0999 50.1 19.6999 49.1 19.3999 48.2C19.1999 47.4 18.3999 46.9 17.5999 46.9Z" fill="#C69214"/>
<path d="M16.0999 31.7C16.3999 33 17.5999 33.9 18.9999 33.9C19.2999 33.9 19.4999 33.9 19.6999 33.8C20.4999 33.6 21.0999 33.1 21.4999 32.4C21.8999 31.7 21.9999 30.9 21.7999 30.2C21.4999 28.9 20.2999 28 18.9999 28C18.6999 28 18.4999 28 18.2999 28.1C16.6999 28.5 15.6999 30.1 16.0999 31.7Z" fill="#C69214"/>
<path d="M12.7999 46.8C13.2999 45.9 13.4999 44.9 13.1999 43.9C12.7999 42.2 11.1999 41 9.49989 41C9.19989 41 8.79989 41 8.49989 41.1C7.49989 41.4 6.69989 42 6.19989 42.9C5.69989 43.8 5.49989 44.8 5.79989 45.8C6.19989 47.5 7.79989 48.7 9.49989 48.7C9.79989 48.7 10.0999 48.7 10.4999 48.6C11.3999 48.3 12.2999 47.7 12.7999 46.8Z" fill="#C69214"/>
<path d="M3.5998 33.9C3.7998 33.9 4.0998 33.9 4.2998 33.8C4.9998 33.6 5.5998 33.2 5.9998 32.5C6.3998 31.9 6.4998 31.1 6.2998 30.4C5.9998 29.2 4.8998 28.3 3.5998 28.3C3.3998 28.3 3.0998 28.3 2.8998 28.4C2.1998 28.6 1.5998 29 1.1998 29.7C0.799805 30.3 0.699805 31.1 0.899805 31.8C1.1998 33 2.2998 33.9 3.5998 33.9Z" fill="#C69214"/>
<path d="M1.99991 41C1.79991 41 1.69991 41 1.49991 41.1C0.399912 41.4 -0.200088 42.4 0.0999123 43.5C0.299912 44.4 1.09991 45 1.99991 45C2.19991 45 2.29991 45 2.49991 44.9C3.49991 44.6 4.19991 43.5 3.89991 42.5C3.59991 41.6 2.89991 41 1.99991 41Z" fill="#C69214"/>
<path d="M47 54.3C47.2 53.9 47.3 53.4 47.2 53C47 52.2 46.3 51.7 45.5 51.7C45.4 51.7 45.2 51.7 45.1 51.8C44.2 52 43.6 53 43.8 54C44 54.8 44.7 55.3 45.5 55.3C45.6 55.3 45.8 55.3 45.9 55.2C46.4 55 46.7 54.7 47 54.3Z" fill="#C69214"/>
<path d="M39.9998 35.9C39.6998 36.3 39.6998 36.9 39.7998 37.3C39.9998 38.1 40.7998 38.7 41.5998 38.7C41.7998 38.7 41.8998 38.7 42.0998 38.6C42.5998 38.5 42.9998 38.2 43.2998 37.7C43.5998 37.3 43.5998 36.8 43.4998 36.3C43.2998 35.5 42.4998 34.9 41.6998 34.9C41.4998 34.9 41.3998 34.9 41.1998 35C40.6998 35.2 40.2998 35.5 39.9998 35.9Z" fill="#C69214"/>
<path d="M12.2998 35.6C12.5998 35.6 12.7998 35.6 13.0998 35.5C14.6998 35.1 15.5998 33.5 15.1998 31.9C14.8998 30.6 13.6998 29.7 12.2998 29.7C11.9998 29.7 11.7998 29.7 11.4998 29.8C10.6998 30 10.0998 30.5 9.6998 31.2C9.2998 31.9 9.1998 32.7 9.3998 33.5C9.7998 34.6 10.9998 35.6 12.2998 35.6Z" fill="#C69214"/>
<path d="M19.6999 53.8C19.3999 52.6 18.2999 51.7 16.9999 51.7C16.7999 51.7 16.4999 51.7 16.2999 51.8C14.7999 52.2 13.8999 53.7 14.2999 55.2C14.5999 56.4 15.6999 57.3 16.9999 57.3C17.1999 57.3 17.4999 57.3 17.6999 57.2C19.1999 56.8 20.0999 55.3 19.6999 53.8Z" fill="#C69214"/>
<path d="M15.6998 27.9C15.8998 27.9 15.9998 27.9 16.1998 27.8C16.6998 27.7 17.0998 27.3 17.3998 26.9C17.6998 26.4 17.6998 25.9 17.5998 25.4C17.3998 24.5 16.5998 23.9 15.6998 23.9C15.4998 23.9 15.3998 23.9 15.1998 24C14.6998 24.1 14.2998 24.5 13.9998 24.9C13.6998 25.4 13.6998 25.9 13.7998 26.4C13.9998 27.3 14.7998 27.9 15.6998 27.9Z" fill="#C69214"/>
<path d="M14.3999 50.4C14.1999 49.5 13.3999 48.9 12.3999 48.9C12.1999 48.9 11.9999 48.9 11.7999 49C10.6999 49.3 9.9999 50.4 10.2999 51.5C10.4999 52.4 11.2999 53 12.2999 53C12.4999 53 12.6999 53 12.8999 52.9C14.0999 52.6 14.6999 51.5 14.3999 50.4Z" fill="#C69214"/>
<path d="M39.5999 9.4C39.5999 10.4 40.3999 11.3 41.4999 11.3C42.4999 11.3 43.3999 10.5 43.3999 9.4C43.3999 8.4 42.5999 7.5 41.4999 7.5C40.4999 7.5 39.5999 8.3 39.5999 9.4Z" fill="#C69214"/>
<path d="M24.5999 19.3C24.5999 20.1 25.1999 20.7 25.9999 20.7C26.6999 20.7 27.3999 20.1 27.3999 19.3C27.3999 18.6 26.7999 17.9 25.9999 17.9C25.1999 18 24.5999 18.6 24.5999 19.3Z" fill="#C69214"/>
<path d="M24.1999 32.8C23.2999 32.8 22.5999 33.5 22.5999 34.4C22.5999 35.3 23.2999 36 24.1999 36C25.0999 36 25.7999 35.3 25.7999 34.4C25.7999 33.5 25.0999 32.8 24.1999 32.8Z" fill="#C69214"/>
<path d="M22.8999 46.3C22.8999 47.1 23.4999 47.7 24.2999 47.7C25.0999 47.7 25.6999 47.1 25.6999 46.3C25.6999 45.5 25.0999 44.9 24.2999 44.9C23.4999 44.9 22.8999 45.5 22.8999 46.3Z" fill="#C69214"/>
<path d="M20.6 57C19.7 57 19 57.7 19 58.6C19 59.5 19.7 60.2 20.6 60.2C21.5 60.2 22.2 59.5 22.2 58.6C22.2 57.7 21.5 57 20.6 57Z" fill="#C69214"/>
<path d="M46.1999 43.9C46.8999 43.9 47.4999 43.3 47.4999 42.6C47.4999 41.9 46.8999 41.3 46.1999 41.3C45.4999 41.3 44.8999 41.9 44.8999 42.6C44.8999 43.3 45.4999 43.9 46.1999 43.9Z" fill="#C69214"/>
<path d="M65.6999 47.7C64.7999 47.7 64.0999 48.4 64.0999 49.3C64.0999 50.2 64.7999 50.9 65.6999 50.9C66.5999 50.9 67.2999 50.2 67.2999 49.3C67.3999 48.4 66.5999 47.7 65.6999 47.7Z" fill="#C69214"/>
<path d="M40.0999 32.3C40.0999 30.6 39.4 29.1 38.2999 27.9C37.0999 26.7 35.6 26.1 33.9 26.1C32.2 26.1 30.7 26.7 29.5 27.9C28.3 29.1 27.7 30.6 27.7 32.3C27.7 34 28.3 35.5 29.5 36.7C30.7 37.9 32.2 38.5 33.9 38.5C35.6 38.5 37.0999 37.9 38.2999 36.7C39.4999 35.5 40.0999 33.9 40.0999 32.3Z" fill="#C69214"/>
<path d="M34.9999 15.2C35.9999 15.2 36.8999 14.8 37.5999 14.1C38.2999 13.4 38.6999 12.5 38.6999 11.5C38.6999 10.5 38.2999 9.6 37.5999 8.9C36.8999 8.2 35.9999 7.8 34.9999 7.8C33.9999 7.8 33.0999 8.2 32.3999 8.9C30.9999 10.3 30.9999 12.7 32.3999 14.1C33.0999 14.8 33.9999 15.2 34.9999 15.2Z" fill="#C69214"/>
<path d="M49.5999 21.4C50.5999 21.4 51.5 21 52.2 20.3C53.6 18.9 53.6 16.5 52.2 15.1C51.5 14.4 50.5999 14 49.5999 14C48.5999 14 47.7 14.4 47 15.1C45.6 16.5 45.6 18.9 47 20.3C47.7 21 48.5999 21.4 49.5999 21.4Z" fill="#C69214"/>
<path d="M21.5 60.9C20.7 60.9 20 61.2 19.4 61.8C18.8 62.4 18.5 63.1 18.5 63.9C18.5 64.7 18.8 65.4 19.4 66C20 66.6 20.7 66.9 21.5 66.9C22.3 66.9 23 66.6 23.6 66C24.2 65.4 24.5 64.7 24.5 63.9C24.5 63.1 24.2 62.4 23.6 61.8C23.1 61.2 22.3 60.9 21.5 60.9Z" fill="#C69214"/>
<path d="M35.6999 15.8C34.5999 15.8 33.4999 16.2 32.7999 17C31.9999 17.8 31.5999 18.8 31.5999 19.9C31.5999 21 31.9999 22.1 32.7999 22.8C33.5999 23.6 34.5999 24 35.6999 24C36.7999 24 37.8999 23.6 38.5999 22.8C39.3999 22 39.7999 21 39.7999 19.9C39.7999 18.8 39.3999 17.7 38.5999 17C37.8999 16.2 36.7999 15.8 35.6999 15.8Z" fill="#C69214"/>
<path d="M38.6999 7.3C39.4999 7.3 40.2999 7 40.8999 6.4C42.0999 5.2 42.0999 3.2 40.8999 1.9C40.2999 1.3 39.4999 1 38.6999 1C37.8999 1 37.0999 1.3 36.4999 1.9C35.8999 2.5 35.5999 3.3 35.5999 4.1C35.5999 4.9 35.8999 5.7 36.4999 6.3C36.9999 7 37.7999 7.3 38.6999 7.3Z" fill="#C69214"/>
<path d="M23.6998 14.3C24.2998 14.3 24.8998 14.1 25.2998 13.6C26.1998 12.7 26.1998 11.3 25.2998 10.5C24.8998 10.1 24.2998 9.9 23.6998 9.9C23.0998 9.9 22.4998 10.1 22.0998 10.5C21.1998 11.4 21.1998 12.8 22.0998 13.6C22.5998 14.1 23.0998 14.3 23.6998 14.3Z" fill="#C69214"/>
<path d="M29 18C29.6 18 30.2 17.8 30.7 17.3C31.6 16.4 31.6 14.8 30.7 13.9C30.2 13.4 29.6 13.2 29 13.2C28.4 13.2 27.8 13.5 27.3 13.9C26.4 14.8 26.4 16.4 27.3 17.3C27.8 17.7 28.4 18 29 18Z" fill="#C69214"/>
<path d="M40.1998 13.1C38.9998 14.3 38.9998 16.3 40.1998 17.5C40.7998 18.1 41.5998 18.4 42.3998 18.4C43.1998 18.4 43.9998 18.1 44.5998 17.5C45.7998 16.3 45.7998 14.3 44.5998 13.1C43.9998 12.5 43.1998 12.2 42.3998 12.2C41.4998 12.2 40.7998 12.5 40.1998 13.1Z" fill="#C69214"/>
<path d="M53.5999 14.5C54.1999 14.5 54.8 14.3 55.2 13.8C56.1 12.9 56.1 11.5 55.2 10.7C54.8 10.3 54.1999 10.1 53.5999 10.1C52.9999 10.1 52.4 10.3 52 10.8C51.1 11.7 51.1 13.1 52 13.9C52.4 14.3 52.9999 14.5 53.5999 14.5Z" fill="#C69214"/>
<path d="M44.3 19.6C43.6 19.6 43 20.2 43 20.9C43 21.6 43.6 22.2 44.3 22.2C45 22.2 45.6 21.6 45.6 20.9C45.6 20.1 45 19.6 44.3 19.6Z" fill="#C69214"/>
</svg>
